<?xml version="1.0" encoding="UTF-8"?>
<svg version="1.1" xmlns="http://www.w3.org/2000/svg" width="744" height="1052">
<path d="M0 0 C5.90928955 1.72642015 9.38950173 4.26346229 12.96484375 9.37109375 C14.29105548 13.47029363 14.46965175 16.77133349 12.58984375 20.73828125 C9.2672162 26.10143551 5.33836569 30.60378201 -0.34765625 33.49609375 C-4.22265625 34.05859375 -4.22265625 34.05859375 -7.34765625 33.49609375 C-9.87697528 29.70211521 -9.43057664 27.81504219 -9.22265625 23.30859375 C-9.0378711 16.86729134 -10.07382196 13.02068911 -13.34765625 7.49609375 C-13.80935485 4.52803135 -13.78274418 3.28469063 -12.34765625 0.68359375 C-8.46261708 -1.62314826 -4.23306192 -0.90859399 0 0 Z " fill="#000000" transform="translate(411.34765625,489.50390625)"/>
<path d="M0 0 C5.27363036 2.40346871 9.01378214 4.49146655 11.3984375 10.01953125 C12.20111724 14.28056519 11.81017926 17.17889183 9.8984375 21.08203125 C5.79542584 25.90306995 0.82263777 31.63051498 -5.6015625 33.01953125 C-8.2890625 32.83203125 -8.2890625 32.83203125 -10.6015625 32.01953125 C-13.19482067 28.12964399 -12.54611062 26.35580436 -12.0390625 21.76953125 C-11.48466203 15.87718646 -11.82339356 12.24248885 -14.6015625 7.01953125 C-15.0390625 3.76953125 -15.0390625 3.76953125 -14.6015625 1.01953125 C-10.80297177 -3.88698177 -5.01702065 -1.89079907 0 0 Z " fill="#000000" transform="translate(180.6015625,490.98046875)"/>
<path d="M0 0 C4.25687113 3.00442435 8.05381983 6.05822878 10 11 C10.44103666 16.55706186 10.37047603 19.38311161 7 24 C4.6953125 25.73046875 4.6953125 25.73046875 2.125 27.1875 C1.28195312 27.67605469 0.43890625 28.16460938 -0.4296875 28.66796875 C-5.78903812 31.44538298 -8.95442955 32.48287577 -15 31 C-17 28 -17 28 -16.8125 25.1875 C-16 22 -16 22 -14.421875 19.28125 C-12.66890261 15.23592909 -12.94811277 12.66501471 -13.4375 8.3125 C-14.20636943 1.30955414 -14.20636943 1.30955414 -12 -2 C-7.46592619 -3.51135794 -4.22222092 -2.00895996 0 0 Z " fill="#000000" transform="translate(538,534)"/>
<path d="M0 0 C6.26959057 0.69662117 10.99039707 3.44047136 15.375 7.9375 C18.21585353 12.48286564 19.62112433 15.8698152 18.7265625 21.3828125 C16.53762364 27.08272259 10.56650608 30.33704791 5.3125 32.875 C1.7391205 34.3043518 -1.1865481 35.08349198 -5.0625 34.4375 C-7 33.375 -7 33.375 -8.0625 31.4375 C-7.89562618 27.26565439 -6.83776599 23.70212774 -5.4375 19.8125 C-4.16914969 16.17901335 -4.00336493 14.19261523 -5.0625 10.4375 C-5.26361783 7.71711673 -5.19727275 5.17787926 -5.0625 2.4375 C-3.0625 0.4375 -3.0625 0.4375 0 0 Z " fill="#000000" transform="translate(285.0625,523.5625)"/>
<path d="M0 0 C5.21171683 1.13499611 9.11795095 3.21122201 13.07421875 6.76171875 C15.25207479 10.68185963 15.92992653 14.09894203 15.63671875 18.57421875 C12.99898048 25.52825602 7.24646116 30.26934754 0.63671875 33.57421875 C-2.86328125 33.76171875 -2.86328125 33.76171875 -6.36328125 33.57421875 C-8.36328125 31.57421875 -8.36328125 31.57421875 -8.55078125 28.51171875 C-8.41097893 25.57586996 -8.11458095 22.89804566 -7.67578125 20.01171875 C-7.129593 15.64959366 -8.25903509 13.44603169 -10.36328125 9.57421875 C-10.98695541 3.44142282 -10.98695541 3.44142282 -9.1328125 0.86328125 C-6.15649268 -1.30489875 -3.49708622 -0.47478689 0 0 Z " fill="#000000" transform="translate(651.36328125,486.42578125)"/>
<path d="M0 0 C6.37689404 0.62723548 10.09751125 3.32433267 14.1875 8 C17.27250195 11.77789009 18.19755122 14.25404444 18.0703125 19.2890625 C17.61245989 22.99350631 16.35946471 24.65034008 13.8125 27.375 C7.8657515 31.45086133 2.11289288 34.50307707 -5.1875 34.375 C-7.6875 32.9375 -7.6875 32.9375 -9.1875 31.375 C-8.81974033 27.69740328 -8.47989802 24.89300461 -6.6484375 21.6484375 C-4.83062139 17.5753629 -4.9124423 14.50449065 -5.125 10.125 C-5.2347281 7.51954126 -5.25485979 4.98738835 -5.1875 2.375 C-3.1875 0.375 -3.1875 0.375 0 0 Z " fill="#000000" transform="translate(59.1875,532.625)"/>
<path d="M0 0 C3.57197958 2.00923851 4.69549786 3.14022925 6.0625 7 C6 10 6 10 4.625 12.375 C0.75655184 14.76975362 -2.56915893 14.74358406 -7 14 C-10.5 12.4375 -10.5 12.4375 -13 10 C-14.0625 6.4375 -14.0625 6.4375 -14 3 C-10.41763129 -2.11766958 -5.50139716 -1.21619834 0 0 Z " fill="#000000" transform="translate(96,555)"/>
<path d="M0 0 C3.25 2.125 3.25 2.125 5 5 C5.1875 8.125 5.1875 8.125 4 11 C0.47983229 13.72812997 -2.30598026 14.20997348 -6.625 13.875 C-10.11791372 13.32224934 -12.61849035 12.77842793 -15 10 C-16.0625 7.625 -16.0625 7.625 -16 5 C-12.17000771 -1.15534475 -6.60315709 -1.22573575 0 0 Z " fill="#000000" transform="translate(689,500)"/>
<path d="M0 0 C2.0625 1.5625 2.0625 1.5625 3.0625 2.5625 C3.4375 5.375 3.4375 5.375 3.0625 8.5625 C0.9147479 11.19522839 -0.71241063 12.36533372 -4.09765625 12.91015625 C-8.86663807 13.09327241 -12.06856694 12.58510395 -15.9375 9.5625 C-16.9375 8.5625 -16.9375 8.5625 -17.1875 5.6875 C-16.9375 2.5625 -16.9375 2.5625 -15.625 0.75 C-10.92380929 -2.55824531 -4.97104824 -2.43264063 0 0 Z " fill="#000000" transform="translate(448.9375,501.4375)"/>
<path d="M0 0 C2.5 1.625 2.5 1.625 4 4 C4.0791665 7.79999182 3.48741763 9.43642336 1 12.3125 C-2.88651549 14.49866496 -6.54079253 15.23931346 -11 15 C-13.21484375 14.18359375 -13.21484375 14.18359375 -15 13 C-16 10.1875 -16 10.1875 -16 7 C-14.22777532 4.00085054 -12.71342159 2.40491496 -9.6875 0.6875 C-6.26201434 -0.18878703 -3.52239764 -0.38426156 0 0 Z " fill="#000000" transform="translate(213,486)"/>
<path d="M0 0 C2.5625 1.625 2.5625 1.625 4 4 C4.0791665 7.79999182 3.48741763 9.43642336 1 12.3125 C-2.95376319 14.53649179 -6.47001851 15.24574945 -11 15 C-14.0625 13.5625 -14.0625 13.5625 -16 12 C-15.63166144 5.61546499 -15.63166144 5.61546499 -12.5625 2.625 C-8.3655967 -0.03645087 -4.95270083 -0.69357349 0 0 Z " fill="#000000" transform="translate(688,483)"/>
<path d="M0 0 C2.9375 1.625 2.9375 1.625 5 4 C5.8125 7.75 5.8125 7.75 6 11 C3.32444477 13.67555523 1.91609626 14.00799083 -1.9375 14.375 C-6.7347932 14.17882816 -9.49938427 12.50061573 -12.875 9.125 C-14 7 -14 7 -14 4.4375 C-13 2 -13 2 -10.9375 0.125 C-6.97415156 -1.39287813 -4.04240872 -1.18413993 0 0 Z " fill="#000000" transform="translate(567,553)"/>
<path d="M0 0 C3.06195334 1.27581389 4.43620578 2.2311897 6.375 4.875 C7.18928045 7.64355354 6.92987935 9.28189114 6 12 C1.96444252 14.69037165 -1.26115525 14.55800105 -6 14 C-8.96912882 12.61019502 -10.69657028 11.30342972 -13 9 C-13.55694842 3.76468481 -13.55694842 3.76468481 -11.78515625 1.33203125 C-8.35512046 -1.22736088 -4.07783295 -0.48204415 0 0 Z " fill="#000000" transform="translate(322,545)"/>
<path d="M0 0 C2.27677176 1.46219342 3.34776031 2.79701375 5 5 C4.16188269 8.77152787 3.56528894 10.57258641 0.4375 12.9375 C-4.00618327 14.3110021 -7.52678058 14.24538495 -12 13 C-14.625 11.25 -14.625 11.25 -16 9 C-16.08528044 5.5887826 -15.24615372 4.29379637 -13.0625 1.6875 C-8.72094729 -0.70478415 -4.85262975 -0.96257082 0 0 Z " fill="#000000" transform="translate(326,529)"/>
<path d="M0 0 C3.25 2.125 3.25 2.125 5 5 C5.1875 8.125 5.1875 8.125 4 11 C0.50131921 13.71147761 -2.32315673 14.22145005 -6.625 13.9375 C-9.59557818 13.46661577 -11.00011601 12.9999236 -13.5625 11.3125 C-15.45429433 8.26917868 -15.59903348 6.51932168 -15 3 C-10.69695481 -1.2036677 -5.66344473 -0.88674319 0 0 Z " fill="#000000" transform="translate(214,503)"/>
<path d="M0 0 C2.3046875 1.34375 2.3046875 1.34375 4 3 C4.5625 5.9375 4.5625 5.9375 4 9 C1.52677845 11.69144698 -0.38598066 12.81312455 -3.875 13.875 C-7.67500026 14.02700001 -10.4573809 13.36254581 -14 12 C-16.1610211 8.75846834 -16.64247553 7.76307099 -16 4 C-11.97919424 -1.12999356 -6.02271433 -0.99630595 0 0 Z " fill="#000000" transform="translate(100,539)"/>
<path d="M0 0 C1.20253165 5.29113924 1.20253165 5.29113924 0.375 8.1875 C-1.582895 10.76836159 -2.97215434 11.73839764 -6 13 C-9.39302414 13.44987381 -12.64209932 13.72280235 -16 13 C-17.8359375 11.16015625 -17.8359375 11.16015625 -19 9 C-18.3685141 5.21108457 -17.40653191 3.40653191 -14.6875 0.6875 C-9.27110316 -2.71349337 -5.9784222 -1.9928074 0 0 Z " fill="#000000" transform="translate(448,485)"/>
<path d="M0 0 C2 3 2 3 1.875 6 C0.8437973 9.53555212 0.12122326 10.17839871 -3 12 C-5.65625 12.3984375 -5.65625 12.3984375 -8.5 12.375 C-9.90765625 12.38660156 -9.90765625 12.38660156 -11.34375 12.3984375 C-14.41577943 11.93763309 -15.79536636 11.16390138 -18 9 C-18.5625 6.0625 -18.5625 6.0625 -18 3 C-12.73927866 -2.56133399 -6.82318806 -2.95219616 0 0 Z " fill="#000000" transform="translate(573,538)"/>
<path d="M0 0 C3.58552881 1.63687185 4.79315055 2.68972583 7 6 C7.42333268 9.38666142 7.62568877 11.19181867 5.5 13.9375 C1.84671409 15.49014651 -1.30867878 15.19382016 -5 14 C-8.36754399 11.49225447 -9.7208458 9.87235688 -11 5.875 C-11 3 -11 3 -10.0625 1.125 C-6.8073642 -0.65052862 -3.57320971 -0.52341939 0 0 Z " fill="#000000" transform="translate(78,563)"/>
<path d="M0 0 C2.87305972 1.40460697 4.74510999 2.74510999 7 5 C6.875 8.5 6.875 8.5 6 12 C2.34136478 14.53848038 -0.65223764 14.07690021 -4.875 13.47265625 C-7.62060322 12.86196142 -9.15848084 12.14843902 -11 10 C-12.0625 7.625 -12.0625 7.625 -12 5 C-8.53698947 0.13014145 -5.8587978 -0.83697111 0 0 Z " fill="#000000" transform="translate(432,513)"/>
<path d="M0 0 C2.84669839 1.32845925 4.51990047 2.34531883 6.375 4.875 C7.1812459 7.61623607 6.85456854 9.29386628 6 12 C4 14 4 14 0.25 14.375 C-4.10223242 14.27986924 -6.63387871 12.79141765 -10 10 C-11.41441874 7.17116253 -11.31900332 5.12623255 -11 2 C-7.80689748 -1.95944712 -4.60936367 -1.13212441 0 0 Z " fill="#000000" transform="translate(550,562)"/>
<path d="M0 0 C3.58552881 1.63687185 4.79315055 2.68972583 7 6 C6.85067143 8.98657136 6.37181669 10.53522913 4.5 12.875 C0.59401567 14.63269295 -2.92423242 14.10135631 -7 13 C-9.82805858 11.02035899 -10.72917208 9.6770698 -12 6.5 C-12 4 -12 4 -10.5625 1.6875 C-7.0794193 -0.60623607 -4.0014665 -0.66823695 0 0 Z " fill="#000000" transform="translate(673,512)"/>
<path d="M0 0 C2 3 2 3 1.9375 5.375 C0.51243717 9.36517591 -2.21329765 12.10664882 -6 14 C-12.15710254 14.44778928 -12.15710254 14.44778928 -15 12.9375 C-16.67615863 9.68994265 -15.96276671 7.42985642 -15 4 C-10.18666877 -0.81333123 -6.57022337 -1.43350328 0 0 Z " fill="#000000" transform="translate(673,475)"/>
<path d="M0 0 C3.26271105 0.53233707 4.99658894 1.99393435 7.2265625 4.36328125 C8.60781268 7.12578161 8.41735556 9.31059224 8.2265625 12.36328125 C5.86705071 14.72279304 5.20730615 14.7073754 1.9765625 14.80078125 C-1.42045633 14.71859531 -3.54553585 14.29744973 -6.2734375 12.23828125 C-9.01856794 9.08138124 -9.86400765 7.52950823 -9.7734375 3.36328125 C-7.01425124 -0.34191173 -4.33842013 -0.13425079 0 0 Z " fill="#000000" transform="translate(303.7734375,553.63671875)"/>
<path d="M0 0 C2.91927604 1.3961755 4.72202996 2.72202996 7 5 C7.4375 7.9375 7.4375 7.9375 7 11 C4.77846682 13.15211027 3.17107432 13.94333511 0.0625 14.09375 C-4.61927683 13.73906994 -7.8335747 12.66117926 -11 9 C-11.51955068 5.81775209 -11.52364827 3.98184051 -10 1.125 C-6.79057417 -0.68030203 -3.54236694 -0.52582009 0 0 Z " fill="#000000" transform="translate(198,515)"/>
<path d="M0 0 C2 3 2 3 1.875 5.9375 C0.87906918 9.42325789 -0.18735547 10.76642934 -3 13 C-6.55353929 14.1845131 -9.27013478 14.26641894 -13 14 C-15 12.875 -15 12.875 -16 11 C-16 6.97457704 -15.25647867 5.31193352 -12.6875 2.1875 C-8.29887178 -1.38463925 -5.47828236 -1.42911714 0 0 Z " fill="#000000" transform="translate(198,478)"/>
<path d="M0 0 C0.69222656 0.06703125 1.38445312 0.1340625 2.09765625 0.203125 C3.9375 0.75 3.9375 0.75 5.9375 3.75 C5.9375 6.6875 5.9375 6.6875 4.9375 9.75 C1.74555674 12.63794866 -0.35839207 13.65117783 -4.625 14.25 C-8.57993527 13.67473669 -10.22836354 12.49825354 -13.0625 9.75 C-12.76790991 6.21491897 -12.31368587 4.98796556 -9.6875 2.5 C-6.27509467 0.22506311 -4.00247125 -0.44887528 0 0 Z " fill="#000000" transform="translate(84.0625,526.25)"/>
<path d="M0 0 C1.5 1.8125 1.5 1.8125 2.125 4.1875 C1.36096984 7.39642667 -0.09837361 8.84395297 -2.71875 10.796875 C-5.67807265 12.48420809 -8.12376739 12.8125 -11.5 12.8125 C-14.46352925 11.58843357 -15.98385779 10.78026664 -17.5 7.9375 C-17.5 4.82013145 -16.36888208 3.26137996 -14.5 0.8125 C-10.42414193 -2.35761183 -4.49653036 -2.13585192 0 0 Z " fill="#000000" transform="translate(314.5,518.1875)"/>
<path d="M0 0 C2 2 2 2 2.375 4.8125 C1.91204903 8.74758325 0.77631252 10.22368748 -2 13 C-5.24877925 15.27414548 -8.09216415 15.41572722 -12 15 C-13.9375 13.9375 -13.9375 13.9375 -15 12 C-15.08467072 7.4277809 -14.4612152 5.52871011 -11.4375 2.0625 C-7.65961527 -0.71831588 -4.56290274 -0.53233865 0 0 Z " fill="#000000" transform="translate(429,476)"/>
<path d="M0 0 C2 2 2 2 2.375 4.875 C1.92056457 8.66196193 0.93500208 9.66926305 -2 12 C-4.3396669 13.16983345 -5.83391527 13.1661241 -8.4375 13.1875 C-9.61119141 13.20876953 -9.61119141 13.20876953 -10.80859375 13.23046875 C-13 13 -13 13 -16 11 C-16.5625 8.1875 -16.5625 8.1875 -16 5 C-11.52638068 -0.41543391 -6.85223207 -1.17079505 0 0 Z " fill="#000000" transform="translate(558,525)"/>
</svg>
